<svg id="visual" viewBox="0 0 960 540" width="960" height="540" xmlns="http://www.w3.org/2000/svg" xmlns:xlink="http://www.w3.org/1999/xlink" version="1.1"><rect x="0" y="0" width="960" height="540" fill="#282c34"></rect><path d="M0 328L22.8 318.2C45.7 308.3 91.3 288.7 137 268.5C182.7 248.3 228.3 227.7 274 230.2C319.7 232.7 365.3 258.3 411.2 263.3C457 268.3 503 252.7 548.8 258.3C594.7 264 640.3 291 686 299.2C731.7 307.3 777.3 296.7 823 300.8C868.7 305 914.3 324 937.2 333.5L960 343L960 0L937.2 0C914.3 0 868.7 0 823 0C777.3 0 731.7 0 686 0C640.3 0 594.7 0 548.8 0C503 0 457 0 411.2 0C365.3 0 319.7 0 274 0C228.3 0 182.7 0 137 0C91.3 0 45.7 0 22.8 0L0 0Z" fill="#fa7268"></path><path d="M0 236L22.8 237.5C45.7 239 91.3 242 137 232.5C182.7 223 228.3 201 274 197.5C319.7 194 365.3 209 411.2 223.2C457 237.3 503 250.7 548.8 254.8C594.7 259 640.3 254 686 242.7C731.7 231.3 777.3 213.7 823 198.3C868.7 183 914.3 170 937.2 163.5L960 157L960 0L937.2 0C914.3 0 868.7 0 823 0C777.3 0 731.7 0 686 0C640.3 0 594.7 0 548.8 0C503 0 457 0 411.2 0C365.3 0 319.7 0 274 0C228.3 0 182.7 0 137 0C91.3 0 45.7 0 22.8 0L0 0Z" fill="#eb5967"></path><path d="M0 138L22.8 147.7C45.7 157.3 91.3 176.7 137 177.8C182.7 179 228.3 162 274 153C319.7 144 365.3 143 411.2 136C457 129 503 116 548.8 112C594.7 108 640.3 113 686 115.5C731.7 118 777.3 118 823 117.3C868.7 116.7 914.3 115.3 937.2 114.7L960 114L960 0L937.2 0C914.3 0 868.7 0 823 0C777.3 0 731.7 0 686 0C640.3 0 594.7 0 548.8 0C503 0 457 0 411.2 0C365.3 0 319.7 0 274 0C228.3 0 182.7 0 137 0C91.3 0 45.7 0 22.8 0L0 0Z" fill="#da3f67"></path><path d="M0 114L22.8 103.7C45.7 93.3 91.3 72.7 137 63.3C182.7 54 228.3 56 274 61.8C319.7 67.7 365.3 77.3 411.2 78.2C457 79 503 71 548.8 74.8C594.7 78.7 640.3 94.3 686 100.7C731.7 107 777.3 104 823 106.2C868.7 108.3 914.3 115.7 937.2 119.3L960 123L960 0L937.2 0C914.3 0 868.7 0 823 0C777.3 0 731.7 0 686 0C640.3 0 594.7 0 548.8 0C503 0 457 0 411.2 0C365.3 0 319.7 0 274 0C228.3 0 182.7 0 137 0C91.3 0 45.7 0 22.8 0L0 0Z" fill="#c62368"></path></svg>