<svg id="visual" viewBox="0 0 960 540" width="960" height="540" xmlns="http://www.w3.org/2000/svg" xmlns:xlink="http://www.w3.org/1999/xlink" version="1.1"><rect x="0" y="0" width="960" height="540" fill="#282c34"></rect><path d="M0 270L22.8 257.8C45.7 245.7 91.3 221.3 137 215.2C182.7 209 228.3 221 274 242.7C319.7 264.3 365.3 295.7 411.2 299.7C457 303.7 503 280.3 548.8 257.8C594.7 235.3 640.3 213.7 686 218.2C731.7 222.7 777.3 253.3 823 257C868.7 260.7 914.3 237.3 937.2 225.7L960 214L960 541L937.2 541C914.3 541 868.7 541 823 541C777.3 541 731.7 541 686 541C640.3 541 594.7 541 548.8 541C503 541 457 541 411.2 541C365.3 541 319.7 541 274 541C228.3 541 182.7 541 137 541C91.3 541 45.7 541 22.8 541L0 541Z" fill="#fa7268"></path><path d="M0 274L22.8 277.5C45.7 281 91.3 288 137 297C182.7 306 228.3 317 274 311.5C319.7 306 365.3 284 411.2 274.5C457 265 503 268 548.8 289C594.7 310 640.3 349 686 352.2C731.7 355.3 777.3 322.7 823 313.8C868.7 305 914.3 320 937.2 327.5L960 335L960 541L937.2 541C914.3 541 868.7 541 823 541C777.3 541 731.7 541 686 541C640.3 541 594.7 541 548.8 541C503 541 457 541 411.2 541C365.3 541 319.7 541 274 541C228.3 541 182.7 541 137 541C91.3 541 45.7 541 22.8 541L0 541Z" fill="#eb5967"></path><path d="M0 389L22.8 396.8C45.7 404.7 91.3 420.3 137 427.7C182.7 435 228.3 434 274 418.8C319.7 403.7 365.3 374.3 411.2 360.7C457 347 503 349 548.8 357.2C594.7 365.3 640.3 379.7 686 387.7C731.7 395.7 777.3 397.3 823 390.8C868.7 384.3 914.3 369.7 937.2 362.3L960 355L960 541L937.2 541C914.3 541 868.7 541 823 541C777.3 541 731.7 541 686 541C640.3 541 594.7 541 548.8 541C503 541 457 541 411.2 541C365.3 541 319.7 541 274 541C228.3 541 182.7 541 137 541C91.3 541 45.7 541 22.8 541L0 541Z" fill="#da3f67"></path><path d="M0 488L22.8 489.3C45.7 490.7 91.3 493.3 137 482.7C182.7 472 228.3 448 274 442C319.7 436 365.3 448 411.2 453.3C457 458.7 503 457.3 548.8 461.8C594.7 466.3 640.3 476.7 686 475.7C731.7 474.7 777.3 462.3 823 452.2C868.7 442 914.3 434 937.2 430L960 426L960 541L937.2 541C914.3 541 868.7 541 823 541C777.3 541 731.7 541 686 541C640.3 541 594.7 541 548.8 541C503 541 457 541 411.2 541C365.3 541 319.7 541 274 541C228.3 541 182.7 541 137 541C91.3 541 45.7 541 22.8 541L0 541Z" fill="#c62368"></path></svg>